<svg id="Layer_1" data-name="Layer 1" xmlns="http://www.w3.org/2000/svg" viewBox="0 0 104.848 17.5747"><defs><style>.cls-1{fill:#fff;}</style></defs><title>logo</title><path class="cls-1" d="M3.8556,14.0254a1.8559,1.8559,0,0,0,.2092.0465,11.81,11.81,0,0,1,1.8139,0q.907.07,1.8139.1627h.6511a1.7374,1.7374,0,0,1,.8721.3256,1.3876,1.3876,0,0,1,.5232.7442,1.4954,1.4954,0,0,1,.0116.8837,1.47,1.47,0,0,1-.5.7441,1.3405,1.3405,0,0,1-.5814.3139,1.684,1.684,0,0,1-.6511.0349,9.1546,9.1546,0,0,1-.9186-.14,9.0019,9.0019,0,0,0-.9186-.1394,12.9317,12.9317,0,0,0-4.2323.0465,2.7718,2.7718,0,0,1-1.186-.0232.9588.9588,0,0,1-.7442-.8372,1.5691,1.5691,0,0,1,.0233-.6047.7677.7677,0,0,1,.3721-.4651.9624.9624,0,0,0,.3836-.36,1.1189,1.1189,0,0,0,.1047-.5233q-.0234-.9533,0-1.8952t.0233-1.8952q.023-1.3256.0232-2.6627T.972,5.1188q.0228-.9067.0349-1.8138T1.065,1.4911A2.0591,2.0591,0,0,1,1.1813.84.7859.7859,0,0,1,1.9487.3052.712.712,0,0,1,2.7393.77a2.8,2.8,0,0,1,.2558.7673q.0927.7446.1745,1.4651t.1511,1.4417q.07.8144.1279,1.6511t.1046,1.6511q.0229.4656.0466.9069t.0465.907q.0463,1.0466.0814,2.0581t.0813,2.058a.6949.6949,0,0,1,.0233.1628A.9935.9935,0,0,0,3.8556,14.0254ZM.4837,15.5369A.8217.8217,0,0,0,.74,16.63a.8077.8077,0,0,0,.4766.2094.72.72,0,0,0,.4535-.093,1.8332,1.8332,0,0,0-.3953-.1861.8749.8749,0,0,1-.3488-.2092,1.0646,1.0646,0,0,1-.2442-.3721Q.6,15.77.4837,15.5369Zm1.07-13.1853q.023-.14.0349-.2792a1.18,1.18,0,0,1,.0582-.2789q.0463-.3021.1163-.5931A.8774.8774,0,0,1,2.1115.7V.6075A.3458.3458,0,0,0,1.844.6191.9015.9015,0,0,0,1.6464.77a.946.946,0,0,0-.1977.3138,1.2837,1.2837,0,0,0-.093.43,1.7444,1.7444,0,0,0,.0349.4535A1.0029,1.0029,0,0,0,1.5533,2.3516ZM8.0182,16.8857a.9289.9289,0,0,0,1.1162-.372.8883.8883,0,0,0,.1395-1.07,1.666,1.666,0,0,1-.4535.8837A3.2256,3.2256,0,0,1,8.0182,16.8857Z"/><path class="cls-1" d="M18.7153,8.514c-.0313.0778-.0621.1592-.0931.2442s-.0621.1668-.093.2441q-.3723.954-.7325,1.8836t-.7557,1.86q-.2562.5352-.5233,1.0466a10.9621,10.9621,0,0,1-.593,1A3.5533,3.5533,0,0,1,14.1806,16.2a4.3751,4.3751,0,0,1-2.2324.1512,3.2374,3.2374,0,0,1-1.5232-.6976,4.282,4.282,0,0,1-1.0581-1.3488,5.2786,5.2786,0,0,1-.3837-1.0814,7.5783,7.5783,0,0,1-.1744-1.1046,23.4539,23.4539,0,0,1,.093-4.6742q.1161-.86.2442-1.7092t.2907-1.7092a.8505.8505,0,0,1,.86-.7442.8128.8128,0,0,1,.9069.721q.1858.837.3139,1.6627t.1745,1.686q.0464,1.0464.1163,2.0928a19.1788,19.1788,0,0,0,.2558,2.0929q.07.3489.1628.686t.2092.6628a1.1027,1.1027,0,0,0,.2326.4883,1.2721,1.2721,0,0,0,.6511.5q.3254.0817.7209-.36a7.07,7.07,0,0,0,.8836-1.1279,10.3517,10.3517,0,0,0,.6744-1.2673,30.2411,30.2411,0,0,0,1.1744-2.9418q.5-1.4763.9651-3.0114.2322-.7674.5116-1.5348t.5581-1.5349a1.6737,1.6737,0,0,1,.1977-.43q.1275-.1972.2674-.3836A1.4214,1.4214,0,0,1,19.75.8632a1.2144,1.2144,0,0,1,.57-.1395,1.2865,1.2865,0,0,1,.5814.1395,1.3872,1.3872,0,0,1,.4884.4187,1.9674,1.9674,0,0,1,.4185,1.0929q.07.5816.14,1.1627a9.9526,9.9526,0,0,1,.07,1.186q-.0234.9768-.07,1.9069t-.0931,1.9069q-.0468.8143-.0813,1.5929t-.0814,1.5929q-.0468.8143-.07,1.6163a8.3385,8.3385,0,0,1-.2093,1.6162,3.58,3.58,0,0,1-.1162.4069q-.07.198-.14.3837a1.0871,1.0871,0,0,1-1.7674.5116,1.1478,1.1478,0,0,1-.558-.7209q-.07-.2093-.1163-.4069a3.3194,3.3194,0,0,1-.07-.407,17.7254,17.7254,0,0,1-.093-2.2208q.0229-1.1043.14-2.2208.0463-.3953.0582-.7791t.0581-.7789a.3868.3868,0,0,0-.0117-.0931.3726.3726,0,0,1-.0116-.093.0458.0458,0,0,1-.0348-.0117A.049.049,0,0,0,18.7153,8.514ZM9.5529,12.0719H9.4367a2.0114,2.0114,0,0,1-.0117.221.7109.7109,0,0,0,.0117.2209,4.3557,4.3557,0,0,0,1.465,2.744,2.11,2.11,0,0,0,.9767.5116q.1161.0236.2442.0466a.2686.2686,0,0,0,.2441-.093q-.3488-.2322-.686-.43a5.8316,5.8316,0,0,1-.6627-.4535,2.8783,2.8783,0,0,1-.9069-1.3023q-.1631-.3717-.2907-.7325T9.5529,12.0719Zm.14-7.1159a.2566.2566,0,0,0,.1162.0234q.0464-.1624.1047-.3256a2.6873,2.6873,0,0,1,.1279-.3023,2.7371,2.7371,0,0,1,.2093-.314q.1161-.151.2558-.3372a.6933.6933,0,0,0-.43.1163.9307.9307,0,0,0-.2442.279,2.4582,2.4582,0,0,0-.186.4187A.56.56,0,0,0,9.6925,4.956Zm9.4646,8.8834a.1625.1625,0,0,0-.07.0116.16.16,0,0,1-.07.0116q.0228.5118.093,1a1.6,1.6,0,0,0,.4418.8836,1.2362,1.2362,0,0,0,.2558.1976c.093.0547.1861.1047.2791.1512q.0464.0234.3023-.07a1.3255,1.3255,0,0,1-.14-.1163c-.0312-.0309-.062-.0617-.093-.093a1.4543,1.4543,0,0,1-.6976-.93q-.0468-.1624-.093-.314t-.093-.3372c-.0156-.0617-.0313-.1239-.0465-.186A1.7268,1.7268,0,0,0,19.1571,13.8394ZM20.5989,1.2353a.5572.5572,0,0,0-.4069-.093.6419.6419,0,0,0-.2675.1628,2.305,2.305,0,0,0-.8837,1.465.1227.1227,0,0,0,0,.1047.29.29,0,0,1,.0233.1047.0488.0488,0,0,1,.0349.0116.0458.0458,0,0,0,.0348.0116q.3021-.4648.593-.9535A2.2772,2.2772,0,0,1,20.5989,1.2353Z"/><path class="cls-1" d="M25.4356,11.3278q-.0468.2562-.093.5116-.0468.326-.0814.6744t-.0814.6744a.8289.8289,0,0,1-.7674.7907,1,1,0,0,1-.6046-.0931.79.79,0,0,1-.3953-.4651,2.1176,2.1176,0,0,1-.1628-.5348q-.047-.2791-.093-.5581-.047-.5112-.0581-1.0116t-.035-1.0116a4.9889,4.9889,0,0,0-.0348-.5929,1.73,1.73,0,0,0-.1744-.57.9562.9562,0,0,1-.1163-.5465,1.8466,1.8466,0,0,1,.14-.57q.0463-.1161.093-.2326a.6225.6225,0,0,0,.0466-.2325l.2092-4.6044q.0229-.2557.0349-.5233a3.8291,3.8291,0,0,1,.0581-.5232.8347.8347,0,0,1,.2675-.5233.79.79,0,0,1,.5465-.1976A.743.743,0,0,1,24.68,1.41a.8574.8574,0,0,1,.2442.57q.0463.8839.1046,1.7324t.1047,1.7325q.0464.279.07.6047.14-.0929.2326-.1512c.0618-.0385.1239-.0815.186-.1279q.5113-.465,1.0233-.9069t1.0232-.907q.8835-.79,1.7324-1.5929T31.133.7469a1.9891,1.9891,0,0,1,.5813-.372.8918.8918,0,0,1,.9419.1163.913.913,0,0,1,.3372.8836,2.1606,2.1606,0,0,1-.5116,1.07q-.3259.3957-.6628.8022t-.7093.8023q-.93.93-1.86,1.8488t-1.86,1.8255a3.9215,3.9215,0,0,1-.4186.36q-.2327.1745-.4883.4069.0927.0469.1744.0931a.6345.6345,0,0,1,.1279.093c.1083.0778.2053.1511.2907.221a2.0756,2.0756,0,0,0,.2907.1976,15.0488,15.0488,0,0,1,1.9766,1.64q.907.8954,1.7673,1.872.465.5352.93,1.07a10.5147,10.5147,0,0,1,.86,1.14c.0618.0929.12.1824.1744.2673a1.2332,1.2332,0,0,1,.1279.2675,1.3652,1.3652,0,0,1,.0581.9069,1.4719,1.4719,0,0,1-.5.7442,1.2571,1.2571,0,0,1-.814.2906,1.524,1.524,0,0,1-.8836-.2441,2.3929,2.3929,0,0,1-.3024-.2559q-.1395-.1394-.2558-.2789-.9766-1.0465-1.93-2.093t-1.93-2.0929a6.266,6.266,0,0,0-.4767-.43q-.2442-.1973-.4768-.4069a.56.56,0,0,0-.1046-.0813C25.5479,11.3859,25.4974,11.3591,25.4356,11.3278ZM23.273,9.1187q.0228-.3254.0348-.5814t.0349-.5349Q22.6679,8.4445,23.273,9.1187Zm.3255,2.6975a1.2468,1.2468,0,0,0-.0581.9883,1.0747,1.0747,0,0,0,.5232.686.832.832,0,0,0,.2209.0581.3264.3264,0,0,0,.2442-.1279,1.1565,1.1565,0,0,1-.64-.6744Q23.7377,12.305,23.5985,11.8162Zm.86-10.2321a.5212.5212,0,0,0-.7907.1861.9631.9631,0,0,0-.1628.5233,2.2519,2.2519,0,0,0,.07.5464,3.204,3.204,0,0,0,.1512-.3488q.0577-.1624.1046-.3488a.5378.5378,0,0,1,.2094-.3488A1.7487,1.7487,0,0,1,24.459,1.5841ZM30.11,14.9556a.1269.1269,0,0,0-.0581.0465.1256.1256,0,0,1-.0582.0465,6.5794,6.5794,0,0,0,.7326,1.0232,2.1557,2.1557,0,0,0,1.0813.6511.5081.5081,0,0,0,.2674.0233q.151-.0236.2675-.0465a.5889.5889,0,0,0,.1976-.1279.452.452,0,0,0,.1047-.2674.9664.9664,0,0,1-.7907.07,2.7342,2.7342,0,0,1-.6744-.3953q-.1863-.1624-.3837-.3488t-.3837-.3722ZM32.3655.77a.33.33,0,0,0-.2674-.1047.9142.9142,0,0,0-.2674.0581,2.6025,2.6025,0,0,0-.64.4419,3.1823,3.1823,0,0,0-.4766.5813.1293.1293,0,0,0-.0117.0931.7807.7807,0,0,1,.0117.1627q.232-.2092.4185-.3836a4.3752,4.3752,0,0,1,.3721-.314,4.0837,4.0837,0,0,1,.407-.2675Q32.1327.91,32.3655.77Z"/><path class="cls-1" d="M36.2024,3.4678q.1159,1.7908.2208,3.5114t.221,3.465a.9855.9855,0,0,1,.186-.0582.3538.3538,0,0,0,.14-.0581,5.0005,5.0005,0,0,1,1.6859-.686q.8721-.1744,1.779-.2908a2.0087,2.0087,0,0,1,.57-.0116,1.301,1.301,0,0,1,.5466.1977,1.4243,1.4243,0,0,1,.558.64,1.2489,1.2489,0,0,1,.0465.8256,1.2352,1.2352,0,0,1-.4883.686,1.7235,1.7235,0,0,1-.8605.3139q-.4419.0234-.8836.0581t-.8837.1047q-.5116.0932-1,.2325a5.5338,5.5338,0,0,0-.9535.3722c-.1551.0777-.2365.151-.2442.2209a.87.87,0,0,0,.0349.2907.56.56,0,0,0,.1163.2557.4039.4039,0,0,0,.2791.07q.8835,0,1.7557-.0118t1.7557.0118q.3719,0,.7325.0232t.7326.07a1.7567,1.7567,0,0,1,.7209.2093.9611.9611,0,0,1,.4185.3838.9953.9953,0,0,1,.14.5,1.0684,1.0684,0,0,1-.1278.5.8931.8931,0,0,1-.407.3837,1.5516,1.5516,0,0,1-.86.2557,16.5943,16.5943,0,0,0-1.8952.1977q-.919.1517-1.8721.2907a6.8075,6.8075,0,0,1-2.2557-.093,2.4829,2.4829,0,0,1-1.3836-.7093,2.6977,2.6977,0,0,1-.6163-1.4534q-.0468-.279-.07-.57t-.0232-.5929q0-1.6046.0116-3.1743t.035-3.1743q.0228-.8136.0464-1.6277t.07-1.6279a1.3538,1.3538,0,0,1,.0465-.3256,1.4416,1.4416,0,0,1,.9535-1.2789,6.0518,6.0518,0,0,1,.9534-.3372q.4884-.1276,1-.221,1.0465-.1857,2.07-.2906a14.14,14.14,0,0,1,2.07-.0582q.2321,0,.4651.0232t.465.07a1.389,1.389,0,0,1,.7442.3489,1.1757,1.1757,0,0,1,.3721.6743,1.3074,1.3074,0,0,1-.2908,1.14,1.3282,1.3282,0,0,1-1.1045.4417h-.221a.59.59,0,0,1-.2209-.0465,4.7265,4.7265,0,0,0-1.3022-.186H38.8534q-.5118.0234-1.0116.0232T36.83,3.398a2.0994,2.0994,0,0,0-.3139.0232Q36.3648,3.4446,36.2024,3.4678Zm.2558,12.3715q-.3489-.2322-.6977-.4419a1.9552,1.9552,0,0,1-.6046-.5813,2.3631,2.3631,0,0,1-.3721-.7559q-.1166-.4067-.2326-.872a1.48,1.48,0,0,0-.0348.8488,2.61,2.61,0,0,0,.3837.8953,2.4035,2.4035,0,0,0,.686.686A1.3076,1.3076,0,0,0,36.4582,15.8393ZM34.6908,3.398a2.4837,2.4837,0,0,0,.186-.4185,1.3957,1.3957,0,0,1,.2093-.3955,1.2964,1.2964,0,0,1,.2907-.3255q.1743-.1395.36-.3022a1.0465,1.0465,0,0,0-.5116.1278,1.1492,1.1492,0,0,0-.3836.3372,1.13,1.13,0,0,0-.1977.4767A.9.9,0,0,0,34.6908,3.398ZM40.3185,11.56a1.3608,1.3608,0,0,0,.8953-.0581.7335.7335,0,0,0,.43-.5464q-.326.1394-.64.2791T40.3185,11.56Zm.9534-8.4413a.7978.7978,0,0,0,.4651.1511,2.5592,2.5592,0,0,0,.4185-.0581,1.8922,1.8922,0,0,0,.3372-.1164.43.43,0,0,0,.2209-.2557q-.3488.07-.6976.1279T41.2719,3.119Zm.6047,12.3947a.8407.8407,0,0,0,1-.2559.6213.6213,0,0,0,.2094-.6976.959.959,0,0,1-.5232.5931A4.4283,4.4283,0,0,0,41.8766,15.5137Z"/><path class="cls-1" d="M57.8756,13.8858a8.6667,8.6667,0,0,0-1.2906.0931q-.6165.0932-1.2208.2093-.7675.1631-1.5465.3255t-1.5465.3256a.4177.4177,0,0,0-.3952.3953q-.0235.1166-.0465.2442a1.2748,1.2748,0,0,1-.07.2442.8074.8074,0,0,1-.93.6743.7406.7406,0,0,1-.5232-.2441,1.0334,1.0334,0,0,1-.2442-.57q-.0236-.3018-.0233-.6045a3.9491,3.9491,0,0,1,.0465-.6047q.1625-1.5348.314-3.1975a29.2219,29.2219,0,0,1,.4883-3.2905,17.9109,17.9109,0,0,1,.9535-3.1394A9.2063,9.2063,0,0,1,53.55,2.026a4.5737,4.5737,0,0,1,.6976-.6512,2.31,2.31,0,0,1,.86-.3953,1.92,1.92,0,0,1,1.4884.2558,3.9233,3.9233,0,0,1,.9533.7674,4.5339,4.5339,0,0,1,.6744,1,12.7525,12.7525,0,0,1,1.093,3.0231q.3719,1.628.6512,3.1626a25.32,25.32,0,0,1,.3488,2.8719,26.25,26.25,0,0,1,.0232,2.9186c-.0156.1242-.0348.2557-.058.3953a2.1265,2.1265,0,0,1-.1047.3952.998.998,0,0,1-1.8139,0,3.3478,3.3478,0,0,1-.1162-.372q-.0469-.1858-.0931-.3721-.07-.279-.14-.558T57.8756,13.8858Zm-7.4415.6279a1.2985,1.2985,0,0,0,.0232,1.279.47.47,0,0,0,.6978.2558.8555.8555,0,0,1-.3722-.2907,1.3168,1.3168,0,0,1-.1744-.3836,3.8216,3.8216,0,0,1-.0929-.43Q50.4807,14.7231,50.4341,14.5137ZM55.3408,3.6771A1.0139,1.0139,0,0,1,55.19,3.84a1.0049,1.0049,0,0,0-.1511.1628,8.6611,8.6611,0,0,0-1.2093,2.2091,18.6421,18.6421,0,0,0-.8372,2.8255q-.3024,1.43-.5348,2.8952a.3726.3726,0,0,0,.0116.093.7762.7762,0,0,1,.0116.1627,16.632,16.632,0,0,1,4.8138-1.2789V10.7q-.2562-1.1623-.4768-2.29T56.3408,6.142q-.1166-.4884-.2673-.9766t-.314-.9535a1.0885,1.0885,0,0,0-.14-.3023A.7039.7039,0,0,0,55.3408,3.6771Zm-1.744-.7442q.279-.2556.5464-.4883T54.69,1.98a1.24,1.24,0,0,1,.6046-.3372,6.1412,6.1412,0,0,0,.6744-.1976,1.2089,1.2089,0,0,0-.7441-.0815,2.1463,2.1463,0,0,0-.6744.2907,3.2015,3.2015,0,0,0-.7094.64A.9278.9278,0,0,0,53.5968,2.9329Zm4.8138,11.139a3.5752,3.5752,0,0,0,.0348.7674,1.7815,1.7815,0,0,0,.2674.6976,1.7925,1.7925,0,0,0,.2094.2209q.116.1049.2325.1977a.8007.8007,0,0,0,.2208.07.39.39,0,0,0,.2908-.0931,1.7976,1.7976,0,0,1-.5349-.3372,1.599,1.599,0,0,1-.3372-.4533,3.3147,3.3147,0,0,1-.2092-.5233Q58.5031,14.3513,58.4106,14.0719Z"/><path class="cls-1" d="M63.2938,8.5373q-.0234.1863-.0465.3605a2.7091,2.7091,0,0,0-.0232.36q-.0234.3956-.035.8023t-.0116.8022l-.1394,3.6278a1.71,1.71,0,0,1-.1628.6744.8873.8873,0,0,1-.2675.372.7316.7316,0,0,1-.3837.1628.8617.8617,0,0,1-.7907-.3488,1.2657,1.2657,0,0,1-.3256-.86q-.0234-.4649-.0116-.907t.0116-.9069q.023-.3953.0465-.7673t.0234-.7675q.0228-1.0464.0232-2.058t.0233-2.058q.07-1.3485.2092-2.7208a2.8026,2.8026,0,0,1,.14-.5,3.432,3.432,0,0,1,.2092-.4535,1.3389,1.3389,0,0,1,1.1047-.7325,1.4277,1.4277,0,0,1,1.1976.57,5.04,5.04,0,0,1,.5929.8837q.2442.4654.4535.9535.3953.9067.7791,1.8371t.779,1.86q.3951.93.779,1.8487t.779,1.872c.031.0621.0618.1242.0931.186s.07.1318.1163.2093a1.3252,1.3252,0,0,0,.1394-.4419,3.81,3.81,0,0,0,.0234-.4185q.0462-1.6972.07-3.3952t.07-3.3952q.0229-.9069.0815-1.8139t.1046-1.8139a2.0222,2.0222,0,0,1,.093-.4417q.07-.2094.1395-.4419a.8749.8749,0,0,1,.8372-.6744.8856.8856,0,0,1,.5813.14,1.3748,1.3748,0,0,1,.3954.4419,1.7034,1.7034,0,0,1,.1977.6277q.0348.3259.0813.6512a30.453,30.453,0,0,1,.0349,3.465q-.0817,1.7211-.2209,3.43t-.2674,3.43q-.1281,1.7214-.1279,3.4418a4.1291,4.1291,0,0,1-.1512.7093,1.6168,1.6168,0,0,1-.36.6161,1.8263,1.8263,0,0,1-.9651.57,2.7979,2.7979,0,0,1-1.1045-.0116,2.2019,2.2019,0,0,1-.8488-.3954,4.0262,4.0262,0,0,1-.6628-.6511A6.5565,6.5565,0,0,1,65.7472,15.2a10.8857,10.8857,0,0,1-.593-1.4068q-.4422-1.2558-.86-2.5348t-.8605-2.5347a.7449.7449,0,0,0-.0464-.2094A.2071.2071,0,0,1,63.2938,8.5373Zm-1.6744,5.1393a1.2833,1.2833,0,0,0,.0465,1.2092.77.77,0,0,0,.2443.2325,2.5412,2.5412,0,0,1,.2907.2094.1222.1222,0,0,0,.1045,0,.3434.3434,0,0,1,.128-.0233.1333.1333,0,0,1,.0465-.093,1.265,1.265,0,0,1-.6162-.6628A5.6632,5.6632,0,0,1,61.6194,13.6766ZM63.0845,3.1423a.6855.6855,0,0,0-.86.2557A1.6477,1.6477,0,0,0,61.84,4.2a1.1248,1.1248,0,0,0,.1047.7791q.0464-.1624.0815-.2907a2.2417,2.2417,0,0,1,.0813-.2443,3.3488,3.3488,0,0,1,.3023-.7208,1.14,1.14,0,0,1,.6046-.4884A.3614.3614,0,0,0,63.0845,3.1423Zm6.2323,13.7666q-.163-.07-.3023-.1395a1.751,1.751,0,0,0-.3024-.1162,2.7471,2.7471,0,0,1-1.2092-.8139q-.1864-.2322-.3488-.4651t-.3488-.4652q-.07-.07-.14-.1511t-.1395-.1745c-.0313.0313-.0545.0467-.07.0467a.2685.2685,0,0,0,.0464.186q.14.3024.2908.5929a4.2156,4.2156,0,0,0,.3371.5465,2.9071,2.9071,0,0,0,.593.6395,2.1032,2.1032,0,0,0,.7791.3838,2.1459,2.1459,0,0,0,.3952.0581A.68.68,0,0,0,69.3168,16.9089ZM69.27,2.2352a.1751.1751,0,0,0,.07.0233.1842.1842,0,0,1,.07.0233q.0465-.2558.0931-.5a1.815,1.815,0,0,1,.1628-.4768,2.639,2.639,0,0,1,.279-.4419Q70.107.654,70.27.4215a.3479.3479,0,0,0-.3721.0232A2.0055,2.0055,0,0,0,69.6424.7a1.492,1.492,0,0,0-.3838.7209A1.9192,1.9192,0,0,0,69.27,2.2352Z"/><path class="cls-1" d="M72.0374,3.0724a.9926.9926,0,0,0,.14-.0929,1.3073,1.3073,0,0,1,.5-.5582,4.3255,4.3255,0,0,1,.686-.3256,8.0641,8.0641,0,0,1,1.5929-.4882q.8253-.1624,1.6395-.349.3252-.0462.6279-.1162t.6278-.1163Q79.2928.8867,80.8045.8168q.3717-.023.7208-.0117T82.2462.84a1.2787,1.2787,0,0,1,1.0465.6511,1.0741,1.0741,0,0,1,.1745.6977,1.1991,1.1991,0,0,1-.2908.6743,1.6364,1.6364,0,0,1-1.1162.5116q-.5353.0236-1.0581.0233t-1.058.0232q-.3491,0-.6977.0116t-.6976.035a1.4153,1.4153,0,0,0-.2326.0465L78.4557,4.7q.14,1.186.1977,2.3836t.1047,2.3836q.0462,1.1861,0,2.36t-.0931,2.36a2.7336,2.7336,0,0,1-.1744.8371,4.4456,4.4456,0,0,1-.3837.7674,1.2373,1.2373,0,0,1-1.2558.6279,1.1926,1.1926,0,0,1-1.0464-.814,7.5936,7.5936,0,0,1-.314-.8952,2.93,2.93,0,0,1-.1046-.9418q.07-1.3022.1162-2.5813t.0931-2.6045q.0462-1.023.0815-2.0348t.0813-2.0347a2.138,2.138,0,0,0,.0116-.3838c-.008-.1314-.0116-.2674-.0116-.4069a2.9045,2.9045,0,0,0-.86.0348q-.4186.0817-.8372.1512-.1864.0468-.3372.0814t-.3372.0814a1.2408,1.2408,0,0,1-.6744,0,.8341.8341,0,0,1-.4883-.4652.381.381,0,0,0-.093-.07.3462.3462,0,0,1-.0931-.07Zm2,.4884a2.2549,2.2549,0,0,0-.314-.0233,2.2017,2.2017,0,0,1-.3139-.0232.6018.6018,0,0,1-.5814-.5348.8272.8272,0,0,0-.093-.2327.5311.5311,0,0,0,.0232.8372.8983.8983,0,0,0,.6279.2326A.9327.9327,0,0,0,74.0374,3.5608Zm3.3951,12.3017a.7647.7647,0,0,1-.1395-.1279c-.0313-.0385-.0621-.0733-.093-.1046a1.5736,1.5736,0,0,1-.8371-1.1163l-.2094-.6279q-.0235-.0462-.1394-.2557a1.6628,1.6628,0,0,0-.035.5929,3.4645,3.4645,0,0,0,.1163.5931,2.5091,2.5091,0,0,0,.2092.5116.9047.9047,0,0,0,.2675.3256,2.8282,2.8282,0,0,0,.3721.1976A.7829.7829,0,0,0,77.4325,15.8625Zm4.0464-12.93a1.07,1.07,0,0,0,.744.0116,1.3086,1.3086,0,0,0,.6047-.4766q.3254-.4416.07-.6977-.1394.1863-.2557.3721a1.0528,1.0528,0,0,1-.2791.3023,1.4967,1.4967,0,0,1-.4069.2558A5.2654,5.2654,0,0,0,81.4789,2.9329Z"/><path class="cls-1" d="M82.5483,10.6767a10.1483,10.1483,0,0,1,.4651-2.93,7.1364,7.1364,0,0,1,1.4883-2.5812A5.8585,5.8585,0,0,1,86.4318,3.7a2.9581,2.9581,0,0,1,2.3255-.1628.9117.9117,0,0,1,.7208.86.8907.8907,0,0,1-.7208.8837,1.3969,1.3969,0,0,1-.3953.1163,2.3879,2.3879,0,0,0-1.1163.8139,8.0946,8.0946,0,0,0-.7907,1.3023,5.0159,5.0159,0,0,0-.4417,1.4418,10.5253,10.5253,0,0,0-.07,1.2092,3.6778,3.6778,0,0,0,.2093,1.2092,2.7236,2.7236,0,0,0,2.4883,2.0232,1.5848,1.5848,0,0,0,.7791-.1046,2.4854,2.4854,0,0,0,.7092-.43,3.0659,3.0659,0,0,0,.8372-1.186,6.42,6.42,0,0,0,.4069-1.3139q.1275-.6626.1977-1.3371a8.6564,8.6564,0,0,0-.5117-4.0462A3.5879,3.5879,0,0,0,90.3852,3.84a2.7559,2.7559,0,0,0-1.0931-.7209,3.8136,3.8136,0,0,0-1.744-.2326,4.7072,4.7072,0,0,0-1.6976.5348,3.009,3.009,0,0,0-.2675.1512,2.9269,2.9269,0,0,1-.2674.1512.7971.7971,0,0,1-.6046.0814.8645.8645,0,0,1-.4884-.3372.7454.7454,0,0,1-.1395-.57.9013.9013,0,0,1,.3023-.5464A2.815,2.815,0,0,1,85.42,1.34,4.4,4.4,0,0,1,86.8853.8168,5.4913,5.4913,0,0,1,88.56.7935a5.7831,5.7831,0,0,1,1.6744.4884,5.61,5.61,0,0,1,1.4649.9882,4.3519,4.3519,0,0,1,1.0349,1.4767,17.9913,17.9913,0,0,1,.779,2.0814,8.6943,8.6943,0,0,1,.3605,2.1742,16.0951,16.0951,0,0,1-.1046,2.5231,8.8032,8.8032,0,0,1-.6628,2.43,5.9974,5.9974,0,0,1-1.2442,1.8836,7.0329,7.0329,0,0,1-1.8255,1.3256,3.1746,3.1746,0,0,1-1.058.36,4.0591,4.0591,0,0,1-1.1046.0116,9.6753,9.6753,0,0,1-1.6859-.372,4.9189,4.9189,0,0,1-1.5232-.814A5.6041,5.6041,0,0,1,82.5483,10.6767Zm1.4883-3.6044q.1159-.2322.2209-.4071t.1976-.3372q.1162-.1857.221-.3488T84.897,5.63a2.3943,2.3943,0,0,1,.2559-.3022q.1393-.14.2789-.2791a.8423.8423,0,0,1,.2907-.2559.6008.6008,0,0,0,.2674-.3255,1.8112,1.8112,0,0,0-.7209.3489,3.3521,3.3521,0,0,0-.6627.6626,3.2307,3.2307,0,0,0-.4534.814A1.6028,1.6028,0,0,0,84.0366,7.0723Zm.1163,6.7671a.2694.2694,0,0,0-.0582.0348.2619.2619,0,0,1-.0581.0349c.0465.0778.0891.1511.1279.221a.8745.8745,0,0,0,.1512.1976,3.6544,3.6544,0,0,0,.7208.7093,9.0552,9.0552,0,0,0,.8372.5464,4.8426,4.8426,0,0,0,1.5116.5582,2.24,2.24,0,0,0,.2441.0349.5316.5316,0,0,0,.3139-.1047q-1.0932-.4186-2.07-.8837A5.1067,5.1067,0,0,1,84.1529,13.8394Zm.3953-11.1855a.7452.7452,0,0,0-.0581.4767.5619.5619,0,0,0,.2441.2674.623.623,0,0,0,.86-.2325,2.182,2.182,0,0,1-.6045-.0349Q84.7108,3.0727,84.5482,2.6539Zm3.6276,2.5347a.9985.9985,0,0,0,.6978-.2326.6305.6305,0,0,0,.2093-.5813q-.2328.1863-.4419.3837T88.1758,5.1886Zm3.2326,6.5579a.1322.1322,0,0,0,.0929.0465,1.2784,1.2784,0,0,1,.1047-.1744,1.3563,1.3563,0,0,0,.1046-.1745,9.2747,9.2747,0,0,0,.6046-2.5115,7.6067,7.6067,0,0,0-.2092-2.558.6629.6629,0,0,0-.07-.1976,1.519,1.519,0,0,1-.0929-.1978.1838.1838,0,0,1-.1163.0234,9.2109,9.2109,0,0,1,.1395,2.9068,14.3714,14.3714,0,0,1-.2558,1.4185Q91.5477,11.0255,91.4084,11.7465Z"/><path class="cls-1" d="M96.8033,8.5373q-.0234.1863-.0465.3605a2.7091,2.7091,0,0,0-.0232.36q-.0234.3956-.035.8023t-.0116.8022l-.1394,3.6278a1.7088,1.7088,0,0,1-.1628.6744.8864.8864,0,0,1-.2675.372.7316.7316,0,0,1-.3837.1628.8617.8617,0,0,1-.7907-.3488,1.2661,1.2661,0,0,1-.3255-.86q-.0236-.4649-.0117-.907t.0117-.9069q.0228-.3953.0464-.7673t.0234-.7675q.0228-1.0464.0232-2.058t.0233-2.058q.07-1.3485.2092-2.7208a2.8026,2.8026,0,0,1,.14-.5,3.4194,3.4194,0,0,1,.2093-.4535,1.3388,1.3388,0,0,1,1.1046-.7325,1.4277,1.4277,0,0,1,1.1976.57,5.0348,5.0348,0,0,1,.5929.8837q.2442.4654.4535.9535.3952.9067.7791,1.8371t.779,1.86q.3953.93.7791,1.8487t.7789,1.872c.031.0621.0618.1242.0931.186s.07.1318.1163.2093a1.3252,1.3252,0,0,0,.1394-.4419,3.81,3.81,0,0,0,.0234-.4185q.0462-1.6972.07-3.3952t.07-3.3952q.0231-.9069.0815-1.8139t.1047-1.8139a2.0164,2.0164,0,0,1,.0929-.4417q.07-.2094.14-.4419a.8748.8748,0,0,1,.8371-.6744.8854.8854,0,0,1,.5813.14,1.3751,1.3751,0,0,1,.3955.4419,1.7032,1.7032,0,0,1,.1976.6277q.0348.3259.0813.6512a30.453,30.453,0,0,1,.0349,3.465q-.0817,1.7211-.2209,3.43t-.2673,3.43q-.1283,1.7214-.128,3.4418a4.129,4.129,0,0,1-.1511.7093,1.6184,1.6184,0,0,1-.3605.6161,1.8263,1.8263,0,0,1-.9651.57,2.798,2.798,0,0,1-1.1045-.0116,2.2019,2.2019,0,0,1-.8488-.3954,4.03,4.03,0,0,1-.6628-.6511A6.5565,6.5565,0,0,1,99.2567,15.2a10.8857,10.8857,0,0,1-.593-1.4068q-.4421-1.2558-.86-2.5348t-.86-2.5347a.7459.7459,0,0,0-.0465-.2094A.2068.2068,0,0,1,96.8033,8.5373ZM95.129,13.6766a1.2833,1.2833,0,0,0,.0464,1.2092.7709.7709,0,0,0,.2443.2325,2.5412,2.5412,0,0,1,.2907.2094.1224.1224,0,0,0,.1046,0,.3429.3429,0,0,1,.1279-.0233.1333.1333,0,0,1,.0465-.093,1.2658,1.2658,0,0,1-.6162-.6628A5.652,5.652,0,0,1,95.129,13.6766ZM96.5941,3.1423a.6856.6856,0,0,0-.8605.2557A1.6485,1.6485,0,0,0,95.35,4.2a1.1254,1.1254,0,0,0,.1047.7791q.0464-.1624.0815-.2907a2.2417,2.2417,0,0,1,.0813-.2443,3.3439,3.3439,0,0,1,.3024-.7208,1.14,1.14,0,0,1,.6045-.4884A.3643.3643,0,0,0,96.5941,3.1423Zm6.2322,13.7666q-.163-.07-.3023-.1395a1.751,1.751,0,0,0-.3024-.1162,2.7471,2.7471,0,0,1-1.2092-.8139q-.1865-.2322-.3488-.4651t-.3488-.4652q-.07-.07-.14-.1511t-.1395-.1745c-.0313.0313-.0545.0467-.07.0467a.2679.2679,0,0,0,.0465.186q.14.3024.2907.5929a4.2052,4.2052,0,0,0,.3372.5465,2.9067,2.9067,0,0,0,.5929.6395,2.104,2.104,0,0,0,.7791.3838,2.1457,2.1457,0,0,0,.3953.0581A.68.68,0,0,0,102.8263,16.9089ZM102.78,2.2352a.1749.1749,0,0,0,.07.0233.1852.1852,0,0,1,.07.0233q.0463-.2558.093-.5a1.815,1.815,0,0,1,.1628-.4768,2.639,2.639,0,0,1,.279-.4419q.1624-.2092.3256-.4417a.3479.3479,0,0,0-.3721.0232A2.0055,2.0055,0,0,0,103.1519.7a1.492,1.492,0,0,0-.3838.7209A1.9192,1.9192,0,0,0,102.78,2.2352Z"/></svg>